<svg width="104.098" height="112.266" viewBox="0 0 60 64.708" xmlns="http://www.w3.org/2000/svg"><path d="M29.907 17.723 26.4 23.17 13.384 3.323h3.507l9.508 14.77 1.938-3.139L18.737 0H7.291L26.4 29.262 45.045 0h-3.97L30 17.54zM9.23 61.293H6.091l18.646-29.447L4.43.093H.46l20.308 31.846L0 64.708l10.985-.092 39.138-61.2h3.323L31.57 37.754l13.662 21.415h3.97L35.445 37.754 59.537.093H48.37zm29.63-23.262 15.047 23.262H43.384l-13.662-20.77-15.508 24.093h3.97l11.63-18 11.723 18H60L41.17 35.354l-.278-.461z" fill="#000"/></svg>
