<?xml version="1.0" encoding="UTF-8" standalone="no"?>
<svg
   width="352.2"
   height="112.266"
   viewBox="0 0 203 64.708"
   xmlSpace="preserve"
   version="1.1"
   id="svg2"
   sodipodi:docname="cmdx-logo.svg"
   xml:space="preserve"
   inkscape:version="1.4.2 (ebf0e940, 2025-05-08)"
   xmlns:inkscape="http://www.inkscape.org/namespaces/inkscape"
   xmlns:sodipodi="http://sodipodi.sourceforge.net/DTD/sodipodi-0.dtd"
   xmlns="http://www.w3.org/2000/svg"
   xmlns:svg="http://www.w3.org/2000/svg"><defs
     id="defs2" /><sodipodi:namedview
     id="namedview2"
     pagecolor="#ffffff"
     bordercolor="#000000"
     borderopacity="0.25"
     inkscape:showpageshadow="2"
     inkscape:pageopacity="0.0"
     inkscape:pagecheckerboard="0"
     inkscape:deskcolor="#d1d1d1"
     inkscape:zoom="2.3622941"
     inkscape:cx="176.10001"
     inkscape:cy="56.089545"
     inkscape:window-width="1920"
     inkscape:window-height="1022"
     inkscape:window-x="0"
     inkscape:window-y="30"
     inkscape:window-maximized="1"
     inkscape:current-layer="svg2" /><path
     d="M172.908 17.723 169.4 23.17 156.385 3.323h3.507l9.508 14.77 1.938-3.139L161.738 0h-11.446L169.4 29.262 188.046 0h-3.97L173 17.54zm-20.677 43.57h-3.139l18.646-29.447L147.431.093h-3.97l20.308 31.846L143 64.708l10.985-.092 39.138-61.2h3.323L174.57 37.754l13.662 21.415h3.969l-13.754-21.415L202.538.093H191.37zm29.63-23.262 15.047 23.262h-10.523l-13.662-20.77-15.508 24.093h3.97l11.63-18 11.723 18H203l-18.83-29.262-.278-.461z"
     fill="#fe1817"
     id="path1"
     style="fill:#18a2c3;fill-opacity:1" /><path
     d="M 12.555795,21.055819 H 25.498052 V 15.911407 H 2.483577 v 1.678703 h 21.173318 v 1.949461 H 0.53411501 V 13.961947 H 27.447514 V 23.00528 H 14.505255 v 25.343 h -1.94946 z M 8.92763,23.00528 H 0.53411501 V 21.055819 H 10.87709 V 49.91868 h 5.415171 V 24.683984 h 1.949463 v 27.23831 H 8.92763 Z m 30.331725,-8.989182 h 5.68593 v 34.278031 h -1.94946 v -32.32857 h -1.787 v 34.007272 h 5.46931 V 14.016098 h 1.94947 v 37.906196 h -9.36825 z m 29.03209,-0.05415 15.70399,29.512682 6.55236,-12.129984 3.14079,20.57765 h 1.94947 l -4.06138,-26.642641 -7.58124,14.025292 -13.48378,-25.342999 z m 17.2744,14.566809 -2.54514,4.711199 1.13718,2.057766 3.57402,-6.768965 4.76535,-8.880879 0.16246,-0.379063 1.78701,-3.303254 h 1.29963 l 0.16246,1.299641 4.06137,26.426034 0.920595,6.227446 h -1.787015 l -4.11552,-26.805095 -0.48739,-3.249102 -1.51623,2.87004 4.33213,28.375495 h -0.0542 l 0.16246,0.812276 H 103.1651 L 97.425055,13.961948 h -4.16968 z m -3.30327,15.433237 -15.54154,-29.296074 -0.3249,-0.541516 -5.74009,37.797892 h 9.47655 l 1.73286,-11.209404 -1.13719,-2.111918 -0.43322,-0.812275 -1.84116,12.129983 h -5.52346 l 4.54875,-29.675136 16.57041,31.191384 5.90254,-11.209403 -0.43321,-2.87004 -0.0542,-0.379062 -5.41516,10.288825 z m -12.83395,-12.021678 10.61373,19.98198 h 2.22022 l -13.86283,-26.046972 -3.51986,22.635413 h 1.94946 z M 113.78565,14.124404 h 1.94946 v 35.848429 h 20.7401 v -5.415169 h -15.27077 v -5.198565 h 1.94945 v 3.249103 h 15.27079 v 9.314094 h -24.63903 z m 3.68232,0 h 20.68595 v 9.259941 h -12.99641 v -1.949461 h 11.04695 v -5.361019 h -16.78703 v 15.649843 h 12.61734 v 1.949461 h -14.5668 z m 0,21.28162 h 16.46212 V 29.99085 H 121.20444 V 17.698413 h 13.1047 v 1.949463 h -11.15525 v 8.393514 h 12.72566 v 9.314094 h -16.46212 v 8.989183 h 15.16247 v 1.949462 h -17.11193 z"
     id="path1-7"
     style="fill:#000000;stroke-width:1.35379" /></svg>
